<mxfile host="app.diagrams.net" agent="Mozilla/5.0 (Windows NT 10.0; Win64; x64) AppleWebKit/537.36 (KHTML, like Gecko) Chrome/138.0.0.0 Safari/537.36" version="28.0.7">
  <diagram name="第 1 页" id="Mx1WXQxcTQFPvBA2LaIb">
    <mxGraphModel dx="5884" dy="2906" grid="1" gridSize="10" guides="1" tooltips="1" connect="1" arrows="1" fold="1" page="1" pageScale="1" pageWidth="1169" pageHeight="827" math="0" shadow="0">
      <root>
        <mxCell id="0" />
        <mxCell id="1" parent="0" />
        <mxCell id="e_EqshOucemn8-1Tb8Sf-43" value="" style="rounded=1;whiteSpace=wrap;html=1;fillColor=#D5E8D4;strokeColor=#9673a6;" parent="1" vertex="1">
          <mxGeometry x="-2760" y="-1330" width="2360" height="1930" as="geometry" />
        </mxCell>
        <mxCell id="e_EqshOucemn8-1Tb8Sf-9" value="" style="group" parent="1" vertex="1" connectable="0">
          <mxGeometry x="-2500" y="230" width="520" height="329" as="geometry" />
        </mxCell>
        <mxCell id="e_EqshOucemn8-1Tb8Sf-10" value="" style="rounded=1;whiteSpace=wrap;html=1;fillColor=#D4E1F5;strokeColor=#d6b656;" parent="e_EqshOucemn8-1Tb8Sf-9" vertex="1">
          <mxGeometry x="-70" width="590" height="329" as="geometry" />
        </mxCell>
        <mxCell id="e_EqshOucemn8-1Tb8Sf-12" value="&lt;span style=&quot;font-size: 18px;&quot;&gt;[Telnet&lt;/span&gt;&lt;span style=&quot;font-size: 18px; background-color: transparent; color: light-dark(rgb(0, 0, 0), rgb(255, 255, 255));&quot;&gt;]&lt;/span&gt;&lt;div&gt;&lt;span style=&quot;font-size: 18px;&quot;&gt;sh BackupLog_Youtube.sh&lt;/span&gt;&lt;/div&gt;" style="ellipse;shape=cloud;whiteSpace=wrap;html=1;fillColor=#E6FFCC;strokeColor=#36393d;gradientColor=none;" parent="e_EqshOucemn8-1Tb8Sf-9" vertex="1">
          <mxGeometry x="17.937256097560976" y="170" width="416.6310975609756" height="130" as="geometry" />
        </mxCell>
        <mxCell id="e_EqshOucemn8-1Tb8Sf-13" value="&lt;font style=&quot;font-size: 24px;&quot;&gt;&lt;b&gt;Download Log&lt;/b&gt;&lt;/font&gt;" style="text;html=1;align=center;verticalAlign=middle;resizable=0;points=[];autosize=1;strokeColor=none;fillColor=none;" parent="e_EqshOucemn8-1Tb8Sf-9" vertex="1">
          <mxGeometry x="-49.99682926829267" y="20" width="190" height="40" as="geometry" />
        </mxCell>
        <mxCell id="e_EqshOucemn8-1Tb8Sf-11" value="&lt;span style=&quot;font-size: 18px;&quot;&gt;[ADB&lt;/span&gt;&lt;span style=&quot;font-size: 18px; background-color: transparent; color: light-dark(rgb(0, 0, 0), rgb(255, 255, 255));&quot;&gt;]&lt;/span&gt;&lt;div&gt;&lt;span style=&quot;font-size: 18px; background-color: transparent; color: light-dark(rgb(0, 0, 0), rgb(255, 255, 255));&quot;&gt;adb pull /storage/..../Backup_Log/Youtube&lt;br&gt;adb rm -r /storage/..../Backup_Log/Youtube&lt;/span&gt;&lt;/div&gt;" style="ellipse;shape=cloud;whiteSpace=wrap;html=1;fillColor=#E6FFCC;strokeColor=#36393d;gradientColor=none;" parent="e_EqshOucemn8-1Tb8Sf-9" vertex="1">
          <mxGeometry x="-14.1" y="40" width="478.2" height="130" as="geometry" />
        </mxCell>
        <mxCell id="KoCOD2jBjq5zpuTroTIb-20" value="" style="group" parent="1" vertex="1" connectable="0">
          <mxGeometry x="-1163" y="-236" width="390" height="350" as="geometry" />
        </mxCell>
        <mxCell id="KoCOD2jBjq5zpuTroTIb-11" value="" style="shape=cylinder3;whiteSpace=wrap;html=1;boundedLbl=1;backgroundOutline=1;size=12;fillColor=#f5f5f5;fontColor=#333333;strokeColor=#666666;align=center;" parent="KoCOD2jBjq5zpuTroTIb-20" vertex="1">
          <mxGeometry width="390" height="350" as="geometry" />
        </mxCell>
        <mxCell id="KoCOD2jBjq5zpuTroTIb-12" value="&lt;font style=&quot;font-size: 18px;&quot;&gt;&lt;b style=&quot;&quot;&gt;/storage/emulated/0/Documents/Youtube&lt;/b&gt;&lt;/font&gt;&lt;b style=&quot;font-size: 18px; background-color: transparent; color: light-dark(rgb(0, 0, 0), rgb(255, 255, 255));&quot;&gt;/&lt;/b&gt;" style="text;html=1;align=center;verticalAlign=middle;whiteSpace=wrap;rounded=0;" parent="KoCOD2jBjq5zpuTroTIb-20" vertex="1">
          <mxGeometry y="36" width="380" height="27.69" as="geometry" />
        </mxCell>
        <mxCell id="KoCOD2jBjq5zpuTroTIb-19" value="&lt;span style=&quot;font-size: 14px;&quot;&gt;youtube_run_status&lt;/span&gt;&lt;br&gt;&lt;div&gt;&lt;font style=&quot;font-size: 12px;&quot;&gt;(Restore execute status Stop/Start.)&lt;/font&gt;&lt;/div&gt;" style="rounded=1;whiteSpace=wrap;html=1;fillColor=#dae8fc;strokeColor=#6c8ebf;" parent="KoCOD2jBjq5zpuTroTIb-20" vertex="1">
          <mxGeometry x="15" y="66" width="360" height="52.44" as="geometry" />
        </mxCell>
        <mxCell id="KoCOD2jBjq5zpuTroTIb-21" value="&lt;span style=&quot;font-size: 14px;&quot;&gt;youtube_execute_url_count&lt;/span&gt;&lt;br&gt;&lt;div&gt;&lt;font style=&quot;font-size: 12px;&quot;&gt;(Record current number of execute youtube url.)&lt;/font&gt;&lt;/div&gt;" style="rounded=1;whiteSpace=wrap;html=1;fillColor=#dae8fc;strokeColor=#6c8ebf;" parent="KoCOD2jBjq5zpuTroTIb-20" vertex="1">
          <mxGeometry x="15" y="126" width="360" height="52.44" as="geometry" />
        </mxCell>
        <mxCell id="RG1xdvSAyyAcqh9mHAEu-5" value="&lt;span style=&quot;font-size: 14px;&quot;&gt;youtube_video_status&lt;/span&gt;&lt;br&gt;&lt;div&gt;&lt;font style=&quot;font-size: 12px;&quot;&gt;(Record current status of youtube is playing or not PASS/FAIL.)&lt;/font&gt;&lt;/div&gt;" style="rounded=1;whiteSpace=wrap;html=1;fillColor=#dae8fc;strokeColor=#6c8ebf;" parent="KoCOD2jBjq5zpuTroTIb-20" vertex="1">
          <mxGeometry x="15" y="186" width="360" height="52.44" as="geometry" />
        </mxCell>
        <mxCell id="RG1xdvSAyyAcqh9mHAEu-36" value="&lt;span style=&quot;font-size: 14px;&quot;&gt;monitor_run_status&lt;/span&gt;&lt;br&gt;&lt;div&gt;&lt;font style=&quot;font-size: 12px;&quot;&gt;(Record execute status Stop/Start.)&lt;/font&gt;&lt;/div&gt;" style="rounded=1;whiteSpace=wrap;html=1;fillColor=#dae8fc;strokeColor=#6c8ebf;" parent="KoCOD2jBjq5zpuTroTIb-20" vertex="1">
          <mxGeometry x="15" y="266" width="360" height="52.44" as="geometry" />
        </mxCell>
        <mxCell id="RG1xdvSAyyAcqh9mHAEu-16" style="edgeStyle=orthogonalEdgeStyle;rounded=0;orthogonalLoop=1;jettySize=auto;html=1;strokeColor=#CC0000;strokeWidth=3;jumpStyle=arc;jumpSize=14;" parent="1" source="KoCOD2jBjq5zpuTroTIb-1" target="RG1xdvSAyyAcqh9mHAEu-15" edge="1">
          <mxGeometry relative="1" as="geometry">
            <Array as="points">
              <mxPoint x="-2620" y="-380" />
              <mxPoint x="-2620" y="-585" />
            </Array>
          </mxGeometry>
        </mxCell>
        <mxCell id="e_EqshOucemn8-1Tb8Sf-2" style="edgeStyle=orthogonalEdgeStyle;rounded=0;orthogonalLoop=1;jettySize=auto;html=1;strokeColor=#CC0000;strokeWidth=3;" parent="1" source="KoCOD2jBjq5zpuTroTIb-1" target="e_EqshOucemn8-1Tb8Sf-1" edge="1">
          <mxGeometry relative="1" as="geometry" />
        </mxCell>
        <mxCell id="e_EqshOucemn8-1Tb8Sf-14" style="edgeStyle=orthogonalEdgeStyle;rounded=0;orthogonalLoop=1;jettySize=auto;html=1;strokeColor=#CC0000;strokeWidth=3;jumpStyle=arc;jumpSize=14;" parent="1" source="KoCOD2jBjq5zpuTroTIb-1" target="e_EqshOucemn8-1Tb8Sf-11" edge="1">
          <mxGeometry relative="1" as="geometry">
            <mxPoint x="-2650" y="-230" as="targetPoint" />
            <Array as="points">
              <mxPoint x="-2620" y="-380" />
              <mxPoint x="-2620" y="335" />
            </Array>
          </mxGeometry>
        </mxCell>
        <mxCell id="e_EqshOucemn8-1Tb8Sf-15" style="edgeStyle=orthogonalEdgeStyle;rounded=0;orthogonalLoop=1;jettySize=auto;html=1;strokeColor=#CC0000;strokeWidth=3;jumpStyle=arc;jumpSize=14;" parent="1" source="KoCOD2jBjq5zpuTroTIb-1" target="e_EqshOucemn8-1Tb8Sf-12" edge="1">
          <mxGeometry relative="1" as="geometry">
            <Array as="points">
              <mxPoint x="-2620" y="-380" />
              <mxPoint x="-2620" y="480" />
            </Array>
          </mxGeometry>
        </mxCell>
        <mxCell id="GykKfxEag-OVybfE2RTw-2" style="edgeStyle=orthogonalEdgeStyle;rounded=0;orthogonalLoop=1;jettySize=auto;html=1;strokeColor=#CC0000;strokeWidth=3;jumpStyle=arc;jumpSize=14;" parent="1" source="KoCOD2jBjq5zpuTroTIb-1" target="e_EqshOucemn8-1Tb8Sf-17" edge="1">
          <mxGeometry relative="1" as="geometry">
            <Array as="points">
              <mxPoint x="-2620" y="-380" />
              <mxPoint x="-2620" y="-105" />
            </Array>
          </mxGeometry>
        </mxCell>
        <mxCell id="KoCOD2jBjq5zpuTroTIb-1" value="&lt;font style=&quot;font-size: 18px;&quot;&gt;&lt;b&gt;Controller PC&lt;/b&gt;&lt;/font&gt;" style="shape=hexagon;perimeter=hexagonPerimeter2;whiteSpace=wrap;html=1;fixedSize=1;fillColor=#f5f5f5;strokeColor=#666666;gradientColor=#b3b3b3;" parent="1" vertex="1">
          <mxGeometry x="-3090" y="-450" width="270" height="140" as="geometry" />
        </mxCell>
        <mxCell id="KoCOD2jBjq5zpuTroTIb-2" value="" style="group" parent="1" vertex="1" connectable="0">
          <mxGeometry x="-1153" y="-839" width="400" height="560" as="geometry" />
        </mxCell>
        <mxCell id="KoCOD2jBjq5zpuTroTIb-3" value="" style="shape=cylinder3;whiteSpace=wrap;html=1;boundedLbl=1;backgroundOutline=1;size=12;fillColor=#f5f5f5;fontColor=#333333;strokeColor=#666666;align=center;" parent="KoCOD2jBjq5zpuTroTIb-2" vertex="1">
          <mxGeometry x="-20" width="420" height="560" as="geometry" />
        </mxCell>
        <mxCell id="KoCOD2jBjq5zpuTroTIb-4" value="&lt;font style=&quot;font-size: 18px;&quot;&gt;&lt;b style=&quot;&quot;&gt;/storage/emulated/0/Documents/Log/Youtube/&lt;/b&gt;&lt;/font&gt;" style="text;html=1;align=center;verticalAlign=middle;whiteSpace=wrap;rounded=0;" parent="KoCOD2jBjq5zpuTroTIb-2" vertex="1">
          <mxGeometry x="27.5" y="40" width="335" height="40" as="geometry" />
        </mxCell>
        <mxCell id="KoCOD2jBjq5zpuTroTIb-17" value="&lt;font style=&quot;font-size: 14px;&quot;&gt;Youtube_PlayUrlCommand.log&lt;/font&gt;&lt;div&gt;&lt;font style=&quot;font-size: 12px;&quot;&gt;(Record all commands that have have executed.)&lt;/font&gt;&lt;/div&gt;" style="rounded=1;whiteSpace=wrap;html=1;fillColor=#dae8fc;strokeColor=#6c8ebf;" parent="KoCOD2jBjq5zpuTroTIb-2" vertex="1">
          <mxGeometry x="7" y="170" width="360" height="56.95" as="geometry" />
        </mxCell>
        <mxCell id="KoCOD2jBjq5zpuTroTIb-18" value="&lt;span style=&quot;font-size: 14px;&quot;&gt;Youtube_Count.log&lt;/span&gt;&lt;div&gt;(Record number of how many times have execute to play video on youtube.)&lt;/div&gt;" style="rounded=1;whiteSpace=wrap;html=1;fillColor=#dae8fc;strokeColor=#6c8ebf;" parent="KoCOD2jBjq5zpuTroTIb-2" vertex="1">
          <mxGeometry x="7" y="233" width="360" height="56.95" as="geometry" />
        </mxCell>
        <mxCell id="RG1xdvSAyyAcqh9mHAEu-21" value="&lt;font style=&quot;font-size: 14px;&quot;&gt;Youtube_SchduleLog.log&lt;/font&gt;&lt;div&gt;&lt;font style=&quot;font-size: 12px;&quot;&gt;(Store the information when to excecute and kill the script.)&lt;/font&gt;&lt;/div&gt;" style="rounded=1;whiteSpace=wrap;html=1;fillColor=#dae8fc;strokeColor=#6c8ebf;" parent="KoCOD2jBjq5zpuTroTIb-2" vertex="1">
          <mxGeometry x="7" y="90" width="360" height="56.95" as="geometry" />
        </mxCell>
        <mxCell id="RG1xdvSAyyAcqh9mHAEu-29" value="&lt;font style=&quot;font-size: 14px;&quot;&gt;YoutubePacket_GetPackets.log&lt;/font&gt;&lt;div&gt;&lt;font style=&quot;font-size: 12px;&quot;&gt;(Record all number of difference of packets.)&lt;/font&gt;&lt;/div&gt;" style="rounded=1;whiteSpace=wrap;html=1;fillColor=#dae8fc;strokeColor=#6c8ebf;" parent="KoCOD2jBjq5zpuTroTIb-2" vertex="1">
          <mxGeometry x="7" y="326" width="360" height="56.95" as="geometry" />
        </mxCell>
        <mxCell id="RG1xdvSAyyAcqh9mHAEu-30" value="&lt;font style=&quot;font-size: 14px;&quot;&gt;YoutubePacket_FailSummary.log&lt;/font&gt;&lt;div&gt;&lt;font style=&quot;font-size: 12px;&quot;&gt;(Record all fail status of difference of packets.)&lt;/font&gt;&lt;/div&gt;" style="rounded=1;whiteSpace=wrap;html=1;fillColor=#dae8fc;strokeColor=#6c8ebf;" parent="KoCOD2jBjq5zpuTroTIb-2" vertex="1">
          <mxGeometry x="7" y="390" width="360" height="56.95" as="geometry" />
        </mxCell>
        <mxCell id="RG1xdvSAyyAcqh9mHAEu-31" value="&lt;font style=&quot;font-size: 14px;&quot;&gt;YoutubePacket_result.log&lt;/font&gt;&lt;div&gt;&lt;font style=&quot;font-size: 12px;&quot;&gt;(Record current of youtube result..)&lt;/font&gt;&lt;/div&gt;" style="rounded=1;whiteSpace=wrap;html=1;fillColor=#D0CEE2;strokeColor=#6c8ebf;" parent="KoCOD2jBjq5zpuTroTIb-2" vertex="1">
          <mxGeometry x="7" y="456" width="360" height="56.95" as="geometry" />
        </mxCell>
        <mxCell id="RG1xdvSAyyAcqh9mHAEu-37" style="edgeStyle=orthogonalEdgeStyle;rounded=0;orthogonalLoop=1;jettySize=auto;html=1;entryX=0;entryY=0.5;entryDx=0;entryDy=0;jumpStyle=arc;jumpSize=14;" parent="1" source="KoCOD2jBjq5zpuTroTIb-15" target="RG1xdvSAyyAcqh9mHAEu-5" edge="1">
          <mxGeometry relative="1" as="geometry">
            <Array as="points">
              <mxPoint x="-1475" y="-24" />
            </Array>
          </mxGeometry>
        </mxCell>
        <mxCell id="RG1xdvSAyyAcqh9mHAEu-38" style="edgeStyle=orthogonalEdgeStyle;rounded=0;orthogonalLoop=1;jettySize=auto;html=1;entryX=0;entryY=0.5;entryDx=0;entryDy=0;jumpStyle=arc;jumpSize=14;" parent="1" source="KoCOD2jBjq5zpuTroTIb-15" target="RG1xdvSAyyAcqh9mHAEu-36" edge="1">
          <mxGeometry relative="1" as="geometry">
            <Array as="points">
              <mxPoint x="-1475" y="56" />
            </Array>
          </mxGeometry>
        </mxCell>
        <mxCell id="e_EqshOucemn8-1Tb8Sf-5" style="edgeStyle=orthogonalEdgeStyle;rounded=0;orthogonalLoop=1;jettySize=auto;html=1;entryX=0;entryY=0.5;entryDx=0;entryDy=0;jumpStyle=arc;jumpSize=14;" parent="1" source="KoCOD2jBjq5zpuTroTIb-15" target="RG1xdvSAyyAcqh9mHAEu-29" edge="1">
          <mxGeometry relative="1" as="geometry">
            <Array as="points">
              <mxPoint x="-1220" y="-420" />
              <mxPoint x="-1220" y="-484" />
            </Array>
          </mxGeometry>
        </mxCell>
        <mxCell id="e_EqshOucemn8-1Tb8Sf-6" style="edgeStyle=orthogonalEdgeStyle;rounded=0;orthogonalLoop=1;jettySize=auto;html=1;entryX=0;entryY=0.5;entryDx=0;entryDy=0;jumpStyle=arc;jumpSize=14;" parent="1" source="KoCOD2jBjq5zpuTroTIb-15" target="RG1xdvSAyyAcqh9mHAEu-30" edge="1">
          <mxGeometry relative="1" as="geometry" />
        </mxCell>
        <mxCell id="e_EqshOucemn8-1Tb8Sf-7" style="edgeStyle=orthogonalEdgeStyle;rounded=0;orthogonalLoop=1;jettySize=auto;html=1;entryX=0;entryY=0.5;entryDx=0;entryDy=0;jumpStyle=arc;jumpSize=14;" parent="1" source="KoCOD2jBjq5zpuTroTIb-15" target="RG1xdvSAyyAcqh9mHAEu-31" edge="1">
          <mxGeometry relative="1" as="geometry">
            <Array as="points">
              <mxPoint x="-1220" y="-420" />
              <mxPoint x="-1220" y="-354" />
            </Array>
          </mxGeometry>
        </mxCell>
        <mxCell id="KoCOD2jBjq5zpuTroTIb-15" value="&lt;font style=&quot;font-size: 18px;&quot;&gt;Check_YoutubeStatus.sh&lt;/font&gt;" style="ellipse;whiteSpace=wrap;html=1;fillColor=#FFF2CC;strokeColor=#d79b00;" parent="1" vertex="1">
          <mxGeometry x="-1590" y="-480" width="230" height="120" as="geometry" />
        </mxCell>
        <mxCell id="RG1xdvSAyyAcqh9mHAEu-2" style="edgeStyle=orthogonalEdgeStyle;rounded=0;orthogonalLoop=1;jettySize=auto;html=1;entryX=0;entryY=0.5;entryDx=0;entryDy=0;jumpStyle=arc;jumpSize=14;" parent="1" source="KoCOD2jBjq5zpuTroTIb-16" target="KoCOD2jBjq5zpuTroTIb-17" edge="1">
          <mxGeometry relative="1" as="geometry" />
        </mxCell>
        <mxCell id="RG1xdvSAyyAcqh9mHAEu-3" style="edgeStyle=orthogonalEdgeStyle;rounded=0;orthogonalLoop=1;jettySize=auto;html=1;entryX=0;entryY=0.5;entryDx=0;entryDy=0;jumpStyle=arc;jumpSize=14;" parent="1" source="KoCOD2jBjq5zpuTroTIb-16" target="KoCOD2jBjq5zpuTroTIb-19" edge="1">
          <mxGeometry relative="1" as="geometry">
            <Array as="points">
              <mxPoint x="-1250" y="-640" />
              <mxPoint x="-1250" y="-144" />
            </Array>
          </mxGeometry>
        </mxCell>
        <mxCell id="RG1xdvSAyyAcqh9mHAEu-4" style="edgeStyle=orthogonalEdgeStyle;rounded=0;orthogonalLoop=1;jettySize=auto;html=1;entryX=0;entryY=0.5;entryDx=0;entryDy=0;jumpStyle=arc;jumpSize=14;" parent="1" source="KoCOD2jBjq5zpuTroTIb-16" target="KoCOD2jBjq5zpuTroTIb-21" edge="1">
          <mxGeometry relative="1" as="geometry">
            <Array as="points">
              <mxPoint x="-1250" y="-640" />
              <mxPoint x="-1250" y="-84" />
            </Array>
          </mxGeometry>
        </mxCell>
        <mxCell id="RG1xdvSAyyAcqh9mHAEu-8" style="edgeStyle=orthogonalEdgeStyle;rounded=0;orthogonalLoop=1;jettySize=auto;html=1;entryX=0;entryY=0.5;entryDx=0;entryDy=0;jumpStyle=arc;jumpSize=14;" parent="1" source="KoCOD2jBjq5zpuTroTIb-16" target="RG1xdvSAyyAcqh9mHAEu-5" edge="1">
          <mxGeometry relative="1" as="geometry">
            <Array as="points">
              <mxPoint x="-1250" y="-640" />
              <mxPoint x="-1250" y="-24" />
            </Array>
          </mxGeometry>
        </mxCell>
        <mxCell id="KoCOD2jBjq5zpuTroTIb-16" value="&lt;font style=&quot;font-size: 18px;&quot;&gt;Youtube.sh&lt;/font&gt;" style="ellipse;whiteSpace=wrap;html=1;fillColor=#FFF2CC;strokeColor=#d79b00;" parent="1" vertex="1">
          <mxGeometry x="-1590" y="-700" width="230" height="120" as="geometry" />
        </mxCell>
        <mxCell id="RG1xdvSAyyAcqh9mHAEu-19" style="edgeStyle=orthogonalEdgeStyle;rounded=0;orthogonalLoop=1;jettySize=auto;html=1;entryX=0;entryY=0.5;entryDx=0;entryDy=0;strokeColor=#CC0000;strokeWidth=3;" parent="1" source="RG1xdvSAyyAcqh9mHAEu-15" target="RG1xdvSAyyAcqh9mHAEu-18" edge="1">
          <mxGeometry relative="1" as="geometry" />
        </mxCell>
        <mxCell id="RG1xdvSAyyAcqh9mHAEu-15" value="&lt;font style=&quot;font-size: 18px;&quot;&gt;&lt;span&gt;[Telnet]&lt;/span&gt;&lt;br&gt;&lt;/font&gt;&lt;div&gt;&lt;font style=&quot;font-size: 18px;&quot;&gt;&lt;span&gt;sh ScriptSchedule_Youtube.sh&lt;/span&gt;&lt;/font&gt;&lt;/div&gt;" style="ellipse;shape=cloud;whiteSpace=wrap;html=1;fillColor=#E6FFCC;strokeColor=#36393d;" parent="1" vertex="1">
          <mxGeometry x="-2450" y="-650" width="345" height="130" as="geometry" />
        </mxCell>
        <mxCell id="RG1xdvSAyyAcqh9mHAEu-20" style="edgeStyle=orthogonalEdgeStyle;rounded=0;orthogonalLoop=1;jettySize=auto;html=1;entryX=0;entryY=0.5;entryDx=0;entryDy=0;" parent="1" source="RG1xdvSAyyAcqh9mHAEu-18" target="KoCOD2jBjq5zpuTroTIb-16" edge="1">
          <mxGeometry relative="1" as="geometry" />
        </mxCell>
        <mxCell id="RG1xdvSAyyAcqh9mHAEu-22" style="edgeStyle=orthogonalEdgeStyle;rounded=0;orthogonalLoop=1;jettySize=auto;html=1;entryX=0;entryY=0.5;entryDx=0;entryDy=0;" parent="1" source="RG1xdvSAyyAcqh9mHAEu-18" target="KoCOD2jBjq5zpuTroTIb-15" edge="1">
          <mxGeometry relative="1" as="geometry" />
        </mxCell>
        <mxCell id="4oiBUXPpPEHKGgDQ5UMN-17" style="edgeStyle=orthogonalEdgeStyle;rounded=0;orthogonalLoop=1;jettySize=auto;html=1;entryX=0;entryY=0.5;entryDx=0;entryDy=0;" parent="1" source="RG1xdvSAyyAcqh9mHAEu-18" target="RG1xdvSAyyAcqh9mHAEu-21" edge="1">
          <mxGeometry relative="1" as="geometry">
            <Array as="points">
              <mxPoint x="-1885" y="-721" />
            </Array>
          </mxGeometry>
        </mxCell>
        <mxCell id="RG1xdvSAyyAcqh9mHAEu-18" value="&lt;font style=&quot;font-size: 18px;&quot;&gt;ScriptSchedule_Youtube.sh&lt;/font&gt;" style="ellipse;whiteSpace=wrap;html=1;fillColor=#FFF2CC;strokeColor=#d79b00;" parent="1" vertex="1">
          <mxGeometry x="-2000" y="-645" width="230" height="120" as="geometry" />
        </mxCell>
        <mxCell id="4oiBUXPpPEHKGgDQ5UMN-16" value="" style="group" parent="1" vertex="1" connectable="0">
          <mxGeometry x="-1180" y="-1290" width="530" height="426.95" as="geometry" />
        </mxCell>
        <mxCell id="4oiBUXPpPEHKGgDQ5UMN-9" value="" style="shape=cylinder3;whiteSpace=wrap;html=1;boundedLbl=1;backgroundOutline=1;size=12;fillColor=#f5f5f5;fontColor=#333333;strokeColor=#666666;align=center;" parent="4oiBUXPpPEHKGgDQ5UMN-16" vertex="1">
          <mxGeometry x="-50" width="530" height="420" as="geometry" />
        </mxCell>
        <mxCell id="4oiBUXPpPEHKGgDQ5UMN-10" value="&lt;font style=&quot;font-size: 18px;&quot;&gt;&lt;b style=&quot;&quot;&gt;/storage/emulated/0/Documents/Backup_Log/Youtube/&lt;/b&gt;&lt;/font&gt;" style="text;html=1;align=center;verticalAlign=middle;whiteSpace=wrap;rounded=0;" parent="4oiBUXPpPEHKGgDQ5UMN-16" vertex="1">
          <mxGeometry x="-22.5" y="30" width="480" height="40" as="geometry" />
        </mxCell>
        <mxCell id="4oiBUXPpPEHKGgDQ5UMN-18" value="&lt;font style=&quot;font-size: 14px;&quot;&gt;Youtube_PlayUrlCommand.log&lt;/font&gt;&lt;div&gt;&lt;font style=&quot;font-size: 12px;&quot;&gt;(Record all commands that have have executed.)&lt;/font&gt;&lt;/div&gt;" style="rounded=1;whiteSpace=wrap;html=1;fillColor=#dae8fc;strokeColor=#6c8ebf;" parent="4oiBUXPpPEHKGgDQ5UMN-16" vertex="1">
          <mxGeometry x="37.5" y="139" width="360" height="56.95" as="geometry" />
        </mxCell>
        <mxCell id="4oiBUXPpPEHKGgDQ5UMN-19" value="&lt;span style=&quot;font-size: 14px;&quot;&gt;Youtube_Count.log&lt;/span&gt;&lt;div&gt;(Record number of how many times have execute to play video on youtube.)&lt;/div&gt;" style="rounded=1;whiteSpace=wrap;html=1;fillColor=#dae8fc;strokeColor=#6c8ebf;" parent="4oiBUXPpPEHKGgDQ5UMN-16" vertex="1">
          <mxGeometry x="37.5" y="202" width="360" height="56.95" as="geometry" />
        </mxCell>
        <mxCell id="4oiBUXPpPEHKGgDQ5UMN-20" value="&lt;font style=&quot;font-size: 14px;&quot;&gt;Youtube_SchduleLog.log&lt;/font&gt;&lt;div&gt;&lt;font style=&quot;font-size: 12px;&quot;&gt;(Store the information when to excecute and kill the script.)&lt;/font&gt;&lt;/div&gt;" style="rounded=1;whiteSpace=wrap;html=1;fillColor=#dae8fc;strokeColor=#6c8ebf;" parent="4oiBUXPpPEHKGgDQ5UMN-16" vertex="1">
          <mxGeometry x="37.5" y="70" width="360" height="56.95" as="geometry" />
        </mxCell>
        <mxCell id="4oiBUXPpPEHKGgDQ5UMN-21" value="&lt;font style=&quot;font-size: 14px;&quot;&gt;YoutubePacket_GetPackets.log&lt;/font&gt;&lt;div&gt;&lt;font style=&quot;font-size: 12px;&quot;&gt;(Record all number of difference of packets.)&lt;/font&gt;&lt;/div&gt;" style="rounded=1;whiteSpace=wrap;html=1;fillColor=#dae8fc;strokeColor=#6c8ebf;" parent="4oiBUXPpPEHKGgDQ5UMN-16" vertex="1">
          <mxGeometry x="37.5" y="273" width="360" height="56.95" as="geometry" />
        </mxCell>
        <mxCell id="4oiBUXPpPEHKGgDQ5UMN-22" value="&lt;font style=&quot;font-size: 14px;&quot;&gt;YoutubePacket_FailSummary.log&lt;/font&gt;&lt;div&gt;&lt;font style=&quot;font-size: 12px;&quot;&gt;(Record all fail status of difference of packets.)&lt;/font&gt;&lt;/div&gt;" style="rounded=1;whiteSpace=wrap;html=1;fillColor=#dae8fc;strokeColor=#6c8ebf;" parent="4oiBUXPpPEHKGgDQ5UMN-16" vertex="1">
          <mxGeometry x="37.5" y="337" width="360" height="56.95" as="geometry" />
        </mxCell>
        <mxCell id="e_EqshOucemn8-1Tb8Sf-3" style="edgeStyle=orthogonalEdgeStyle;rounded=0;orthogonalLoop=1;jettySize=auto;html=1;entryX=1;entryY=0.5;entryDx=0;entryDy=0;strokeColor=#CC0000;strokeWidth=3;jumpStyle=arc;jumpSize=14;" parent="1" source="e_EqshOucemn8-1Tb8Sf-1" target="RG1xdvSAyyAcqh9mHAEu-31" edge="1">
          <mxGeometry relative="1" as="geometry">
            <Array as="points">
              <mxPoint x="-1930" y="-380" />
              <mxPoint x="-1930" y="-260" />
              <mxPoint x="-740" y="-260" />
              <mxPoint x="-740" y="-354" />
            </Array>
          </mxGeometry>
        </mxCell>
        <mxCell id="e_EqshOucemn8-1Tb8Sf-1" value="&lt;font style=&quot;font-size: 18px;&quot;&gt;&lt;span&gt;[Telnet]&lt;/span&gt;&lt;br style=&quot;&quot;&gt;cat YoutubePacket_result.log&lt;/font&gt;" style="ellipse;shape=cloud;whiteSpace=wrap;html=1;fillColor=#E6FFCC;strokeColor=#36393d;gradientColor=none;" parent="1" vertex="1">
          <mxGeometry x="-2493.75" y="-445" width="432.5" height="130" as="geometry" />
        </mxCell>
        <mxCell id="e_EqshOucemn8-1Tb8Sf-20" style="edgeStyle=orthogonalEdgeStyle;rounded=0;orthogonalLoop=1;jettySize=auto;html=1;entryX=0;entryY=0.5;entryDx=0;entryDy=0;strokeColor=#CC0000;strokeWidth=3;jumpStyle=arc;jumpSize=14;" parent="1" source="e_EqshOucemn8-1Tb8Sf-17" target="e_EqshOucemn8-1Tb8Sf-18" edge="1">
          <mxGeometry relative="1" as="geometry" />
        </mxCell>
        <mxCell id="e_EqshOucemn8-1Tb8Sf-17" value="&lt;span style=&quot;font-size: 18px;&quot;&gt;[Telnet&lt;/span&gt;&lt;span style=&quot;font-size: 18px; background-color: transparent; color: light-dark(rgb(0, 0, 0), rgb(255, 255, 255));&quot;&gt;]&lt;/span&gt;&lt;div&gt;&lt;span style=&quot;font-size: 18px;&quot;&gt;sh StopScript_Youtube.sh&lt;/span&gt;&lt;/div&gt;" style="ellipse;shape=cloud;whiteSpace=wrap;html=1;fillColor=#E6FFCC;strokeColor=#36393d;gradientColor=none;" parent="1" vertex="1">
          <mxGeometry x="-2490.62" y="-170" width="426.25" height="130" as="geometry" />
        </mxCell>
        <mxCell id="e_EqshOucemn8-1Tb8Sf-21" style="edgeStyle=orthogonalEdgeStyle;rounded=0;orthogonalLoop=1;jettySize=auto;html=1;entryX=0;entryY=0.5;entryDx=0;entryDy=0;strokeColor=#CC0000;strokeWidth=3;jumpStyle=arc;jumpSize=14;" parent="1" source="e_EqshOucemn8-1Tb8Sf-18" target="e_EqshOucemn8-1Tb8Sf-19" edge="1">
          <mxGeometry relative="1" as="geometry" />
        </mxCell>
        <mxCell id="e_EqshOucemn8-1Tb8Sf-18" value="&lt;font style=&quot;font-size: 18px;&quot;&gt;StopScript_Youtube.sh&lt;/font&gt;" style="ellipse;whiteSpace=wrap;html=1;fillColor=#FFF2CC;strokeColor=#d79b00;" parent="1" vertex="1">
          <mxGeometry x="-1920" y="160" width="230" height="120" as="geometry" />
        </mxCell>
        <mxCell id="e_EqshOucemn8-1Tb8Sf-22" style="edgeStyle=orthogonalEdgeStyle;rounded=0;orthogonalLoop=1;jettySize=auto;html=1;entryX=1;entryY=0.25;entryDx=0;entryDy=0;strokeColor=#009900;strokeWidth=3;jumpStyle=arc;jumpSize=14;" parent="1" source="e_EqshOucemn8-1Tb8Sf-19" target="RG1xdvSAyyAcqh9mHAEu-36" edge="1">
          <mxGeometry relative="1" as="geometry">
            <Array as="points">
              <mxPoint x="-720" y="220" />
              <mxPoint x="-720" y="43" />
            </Array>
          </mxGeometry>
        </mxCell>
        <mxCell id="e_EqshOucemn8-1Tb8Sf-25" style="edgeStyle=orthogonalEdgeStyle;rounded=0;orthogonalLoop=1;jettySize=auto;html=1;strokeColor=#009900;strokeWidth=3;jumpStyle=arc;jumpSize=14;" parent="1" source="e_EqshOucemn8-1Tb8Sf-19" edge="1">
          <mxGeometry relative="1" as="geometry">
            <mxPoint x="-788" y="-40" as="targetPoint" />
            <Array as="points">
              <mxPoint x="-690" y="220" />
              <mxPoint x="-690" y="-40" />
            </Array>
          </mxGeometry>
        </mxCell>
        <mxCell id="e_EqshOucemn8-1Tb8Sf-27" style="edgeStyle=orthogonalEdgeStyle;rounded=0;orthogonalLoop=1;jettySize=auto;html=1;entryX=0.5;entryY=1;entryDx=0;entryDy=0;strokeColor=#009900;strokeWidth=3;jumpStyle=arc;jumpSize=14;" parent="1" source="e_EqshOucemn8-1Tb8Sf-19" target="RG1xdvSAyyAcqh9mHAEu-18" edge="1">
          <mxGeometry relative="1" as="geometry">
            <Array as="points">
              <mxPoint x="-1485" y="110" />
              <mxPoint x="-1885" y="110" />
            </Array>
          </mxGeometry>
        </mxCell>
        <mxCell id="e_EqshOucemn8-1Tb8Sf-19" value="&lt;font style=&quot;font-size: 18px;&quot;&gt;KillProcess.sh&lt;/font&gt;" style="ellipse;whiteSpace=wrap;html=1;fillColor=#FFF2CC;strokeColor=#d79b00;" parent="1" vertex="1">
          <mxGeometry x="-1610" y="160" width="230" height="120" as="geometry" />
        </mxCell>
        <mxCell id="e_EqshOucemn8-1Tb8Sf-24" style="edgeStyle=orthogonalEdgeStyle;rounded=0;orthogonalLoop=1;jettySize=auto;html=1;entryX=0.5;entryY=1;entryDx=0;entryDy=0;strokeColor=#009900;strokeWidth=3;jumpStyle=arc;jumpSize=14;" parent="1" source="RG1xdvSAyyAcqh9mHAEu-5" target="KoCOD2jBjq5zpuTroTIb-16" edge="1">
          <mxGeometry relative="1" as="geometry">
            <Array as="points">
              <mxPoint x="-750" y="-24" />
              <mxPoint x="-750" y="130" />
              <mxPoint x="-1300" y="130" />
              <mxPoint x="-1300" y="-530" />
              <mxPoint x="-1475" y="-530" />
            </Array>
          </mxGeometry>
        </mxCell>
        <mxCell id="e_EqshOucemn8-1Tb8Sf-26" style="edgeStyle=orthogonalEdgeStyle;rounded=0;orthogonalLoop=1;jettySize=auto;html=1;entryX=0.687;entryY=0.967;entryDx=0;entryDy=0;entryPerimeter=0;strokeColor=#009900;strokeWidth=3;jumpStyle=arc;jumpSize=14;" parent="1" source="RG1xdvSAyyAcqh9mHAEu-36" target="KoCOD2jBjq5zpuTroTIb-15" edge="1">
          <mxGeometry relative="1" as="geometry">
            <Array as="points">
              <mxPoint x="-950" y="150" />
              <mxPoint x="-1340" y="150" />
              <mxPoint x="-1340" y="-320" />
              <mxPoint x="-1432" y="-320" />
            </Array>
          </mxGeometry>
        </mxCell>
        <mxCell id="e_EqshOucemn8-1Tb8Sf-28" style="edgeStyle=orthogonalEdgeStyle;rounded=0;orthogonalLoop=1;jettySize=auto;html=1;entryX=1;entryY=0.5;entryDx=0;entryDy=0;entryPerimeter=0;strokeColor=#CC0000;strokeWidth=3;jumpStyle=arc;jumpSize=14;" parent="1" source="e_EqshOucemn8-1Tb8Sf-11" target="4oiBUXPpPEHKGgDQ5UMN-9" edge="1">
          <mxGeometry relative="1" as="geometry">
            <mxPoint x="-2030.0000812616613" y="344.9411764705883" as="sourcePoint" />
            <mxPoint x="-688.69" y="-1070" as="targetPoint" />
            <Array as="points">
              <mxPoint x="-450" y="345" />
              <mxPoint x="-450" y="-1080" />
            </Array>
          </mxGeometry>
        </mxCell>
        <mxCell id="e_EqshOucemn8-1Tb8Sf-37" style="edgeStyle=orthogonalEdgeStyle;rounded=0;orthogonalLoop=1;jettySize=auto;html=1;entryX=1;entryY=0.5;entryDx=0;entryDy=0;strokeColor=#000099;strokeWidth=3;jumpStyle=arc;jumpSize=14;" parent="1" source="e_EqshOucemn8-1Tb8Sf-29" target="RG1xdvSAyyAcqh9mHAEu-30" edge="1">
          <mxGeometry relative="1" as="geometry">
            <mxPoint x="-530" y="200.00000000000045" as="targetPoint" />
            <Array as="points">
              <mxPoint x="-660" y="465" />
              <mxPoint x="-660" y="-420" />
            </Array>
          </mxGeometry>
        </mxCell>
        <mxCell id="e_EqshOucemn8-1Tb8Sf-38" style="edgeStyle=orthogonalEdgeStyle;rounded=0;orthogonalLoop=1;jettySize=auto;html=1;entryX=1;entryY=0.5;entryDx=0;entryDy=0;strokeColor=#000099;strokeWidth=3;jumpStyle=arc;jumpSize=14;" parent="1" source="e_EqshOucemn8-1Tb8Sf-29" target="RG1xdvSAyyAcqh9mHAEu-29" edge="1">
          <mxGeometry relative="1" as="geometry">
            <Array as="points">
              <mxPoint x="-620" y="465" />
              <mxPoint x="-620" y="-484" />
            </Array>
          </mxGeometry>
        </mxCell>
        <mxCell id="e_EqshOucemn8-1Tb8Sf-39" style="edgeStyle=orthogonalEdgeStyle;rounded=0;orthogonalLoop=1;jettySize=auto;html=1;entryX=1;entryY=0.5;entryDx=0;entryDy=0;strokeColor=#000099;strokeWidth=3;jumpStyle=arc;jumpSize=14;" parent="1" source="e_EqshOucemn8-1Tb8Sf-29" target="KoCOD2jBjq5zpuTroTIb-18" edge="1">
          <mxGeometry relative="1" as="geometry">
            <Array as="points">
              <mxPoint x="-580" y="465" />
              <mxPoint x="-580" y="-577" />
            </Array>
          </mxGeometry>
        </mxCell>
        <mxCell id="e_EqshOucemn8-1Tb8Sf-40" style="edgeStyle=orthogonalEdgeStyle;rounded=0;orthogonalLoop=1;jettySize=auto;html=1;entryX=1;entryY=0.5;entryDx=0;entryDy=0;strokeColor=#000099;strokeWidth=3;jumpStyle=arc;jumpSize=14;" parent="1" source="e_EqshOucemn8-1Tb8Sf-29" target="KoCOD2jBjq5zpuTroTIb-17" edge="1">
          <mxGeometry relative="1" as="geometry">
            <Array as="points">
              <mxPoint x="-550" y="465" />
              <mxPoint x="-550" y="-640" />
            </Array>
          </mxGeometry>
        </mxCell>
        <mxCell id="e_EqshOucemn8-1Tb8Sf-41" style="edgeStyle=orthogonalEdgeStyle;rounded=0;orthogonalLoop=1;jettySize=auto;html=1;entryX=1;entryY=0.5;entryDx=0;entryDy=0;strokeColor=#000099;strokeWidth=3;jumpStyle=arc;jumpSize=14;" parent="1" source="e_EqshOucemn8-1Tb8Sf-29" target="RG1xdvSAyyAcqh9mHAEu-21" edge="1">
          <mxGeometry relative="1" as="geometry">
            <Array as="points">
              <mxPoint x="-520" y="465" />
              <mxPoint x="-520" y="-720" />
            </Array>
          </mxGeometry>
        </mxCell>
        <mxCell id="e_EqshOucemn8-1Tb8Sf-29" value="&lt;font style=&quot;font-size: 18px;&quot;&gt;Backup_Youtube.sh&lt;/font&gt;" style="ellipse;whiteSpace=wrap;html=1;fillColor=#FFF2CC;strokeColor=#d79b00;" parent="1" vertex="1">
          <mxGeometry x="-1610" y="405" width="230" height="120" as="geometry" />
        </mxCell>
        <mxCell id="e_EqshOucemn8-1Tb8Sf-31" style="edgeStyle=orthogonalEdgeStyle;rounded=0;orthogonalLoop=1;jettySize=auto;html=1;entryX=0;entryY=0.5;entryDx=0;entryDy=0;strokeColor=#CC0000;strokeWidth=3;jumpStyle=arc;jumpSize=14;" parent="1" source="e_EqshOucemn8-1Tb8Sf-12" target="e_EqshOucemn8-1Tb8Sf-29" edge="1">
          <mxGeometry relative="1" as="geometry" />
        </mxCell>
        <mxCell id="e_EqshOucemn8-1Tb8Sf-32" style="edgeStyle=orthogonalEdgeStyle;rounded=0;orthogonalLoop=1;jettySize=auto;html=1;entryX=1;entryY=0.5;entryDx=0;entryDy=0;strokeColor=#000099;strokeWidth=3;jumpStyle=arc;jumpSize=14;" parent="1" source="RG1xdvSAyyAcqh9mHAEu-21" target="4oiBUXPpPEHKGgDQ5UMN-20" edge="1">
          <mxGeometry relative="1" as="geometry">
            <Array as="points">
              <mxPoint x="-730" y="-730" />
              <mxPoint x="-730" y="-1192" />
            </Array>
          </mxGeometry>
        </mxCell>
        <mxCell id="e_EqshOucemn8-1Tb8Sf-33" style="edgeStyle=orthogonalEdgeStyle;rounded=0;orthogonalLoop=1;jettySize=auto;html=1;entryX=1;entryY=0.5;entryDx=0;entryDy=0;strokeColor=#000099;strokeWidth=3;jumpStyle=arc;jumpSize=14;" parent="1" source="KoCOD2jBjq5zpuTroTIb-17" target="4oiBUXPpPEHKGgDQ5UMN-18" edge="1">
          <mxGeometry relative="1" as="geometry">
            <Array as="points">
              <mxPoint x="-690" y="-650" />
              <mxPoint x="-690" y="-1122" />
            </Array>
          </mxGeometry>
        </mxCell>
        <mxCell id="e_EqshOucemn8-1Tb8Sf-34" style="edgeStyle=orthogonalEdgeStyle;rounded=0;orthogonalLoop=1;jettySize=auto;html=1;entryX=1;entryY=0.5;entryDx=0;entryDy=0;strokeColor=#000099;strokeWidth=3;jumpStyle=arc;jumpSize=14;" parent="1" source="KoCOD2jBjq5zpuTroTIb-18" target="4oiBUXPpPEHKGgDQ5UMN-19" edge="1">
          <mxGeometry relative="1" as="geometry">
            <Array as="points">
              <mxPoint x="-660" y="-590" />
              <mxPoint x="-660" y="-1060" />
            </Array>
          </mxGeometry>
        </mxCell>
        <mxCell id="e_EqshOucemn8-1Tb8Sf-35" style="edgeStyle=orthogonalEdgeStyle;rounded=0;orthogonalLoop=1;jettySize=auto;html=1;entryX=1;entryY=0.5;entryDx=0;entryDy=0;strokeColor=#000099;strokeWidth=3;jumpStyle=arc;jumpSize=14;" parent="1" source="RG1xdvSAyyAcqh9mHAEu-29" target="4oiBUXPpPEHKGgDQ5UMN-21" edge="1">
          <mxGeometry relative="1" as="geometry">
            <Array as="points">
              <mxPoint x="-630" y="-500" />
              <mxPoint x="-630" y="-988" />
            </Array>
          </mxGeometry>
        </mxCell>
        <mxCell id="e_EqshOucemn8-1Tb8Sf-36" style="edgeStyle=orthogonalEdgeStyle;rounded=0;orthogonalLoop=1;jettySize=auto;html=1;entryX=1;entryY=0.5;entryDx=0;entryDy=0;strokeColor=#000099;strokeWidth=3;jumpStyle=arc;jumpSize=14;" parent="1" source="RG1xdvSAyyAcqh9mHAEu-30" target="4oiBUXPpPEHKGgDQ5UMN-22" edge="1">
          <mxGeometry relative="1" as="geometry">
            <Array as="points">
              <mxPoint x="-600" y="-430" />
              <mxPoint x="-600" y="-924" />
            </Array>
          </mxGeometry>
        </mxCell>
        <mxCell id="e_EqshOucemn8-1Tb8Sf-42" style="edgeStyle=orthogonalEdgeStyle;rounded=0;orthogonalLoop=1;jettySize=auto;html=1;entryX=0.5;entryY=1;entryDx=0;entryDy=0;jumpStyle=arc;jumpSize=14;" parent="1" source="KoCOD2jBjq5zpuTroTIb-21" target="KoCOD2jBjq5zpuTroTIb-18" edge="1">
          <mxGeometry relative="1" as="geometry">
            <Array as="points">
              <mxPoint x="-730" y="-84" />
              <mxPoint x="-730" y="-530" />
              <mxPoint x="-966" y="-530" />
            </Array>
          </mxGeometry>
        </mxCell>
        <mxCell id="e_EqshOucemn8-1Tb8Sf-44" value="&lt;font style=&quot;font-size: 72px;&quot;&gt;&lt;b style=&quot;&quot;&gt;IP2300&lt;/b&gt;&lt;/font&gt;" style="text;html=1;align=center;verticalAlign=middle;whiteSpace=wrap;rounded=0;" parent="1" vertex="1">
          <mxGeometry x="-2590" y="-1250" width="300" height="50" as="geometry" />
        </mxCell>
        <mxCell id="e_EqshOucemn8-1Tb8Sf-45" value="&lt;font style=&quot;font-size: 14px; background-color: rgb(255, 153, 153);&quot;&gt;sh Youtube.sh &amp;amp;&lt;/font&gt;" style="text;html=1;align=center;verticalAlign=middle;whiteSpace=wrap;rounded=0;" parent="1" vertex="1">
          <mxGeometry x="-1720" y="-675" width="140" height="30" as="geometry" />
        </mxCell>
        <mxCell id="e_EqshOucemn8-1Tb8Sf-46" value="&lt;font style=&quot;font-size: 14px; background-color: rgb(255, 153, 153);&quot;&gt;Kill-9 PID (ScriptSchedule_Youtube.sh)&lt;/font&gt;" style="text;html=1;align=center;verticalAlign=middle;whiteSpace=wrap;rounded=0;" parent="1" vertex="1">
          <mxGeometry x="-2010" y="-510" width="260" height="30" as="geometry" />
        </mxCell>
        <mxCell id="e_EqshOucemn8-1Tb8Sf-49" value="&lt;span style=&quot;font-size: 14px; background-color: rgb(255, 153, 153);&quot;&gt;echo &quot;Stop&quot; &amp;gt; youtube_play_status&lt;/span&gt;" style="text;html=1;align=center;verticalAlign=middle;whiteSpace=wrap;rounded=0;" parent="1" vertex="1">
          <mxGeometry x="-790" y="-70" width="230" height="30" as="geometry" />
        </mxCell>
        <mxCell id="e_EqshOucemn8-1Tb8Sf-51" value="&lt;span style=&quot;font-size: 14px; background-color: rgb(255, 153, 153);&quot;&gt;echo &quot;Stop&quot; &amp;gt; youtube_monitor_status&lt;/span&gt;" style="text;html=1;align=center;verticalAlign=middle;whiteSpace=wrap;rounded=0;" parent="1" vertex="1">
          <mxGeometry x="-790" y="50" width="250" height="30" as="geometry" />
        </mxCell>
      </root>
    </mxGraphModel>
  </diagram>
</mxfile>
